<svg id="Layer_3" data-name="Layer 3" xmlns="http://www.w3.org/2000/svg" xmlns:xlink="http://www.w3.org/1999/xlink" viewBox="0 0 389.07 180.78"><defs><style>.cls-1,.cls-2{fill:none;}.cls-2{stroke:#000;stroke-miterlimit:10;stroke-width:10px;}.cls-3{clip-path:url(#clip-path);}</style><clipPath id="clip-path" transform="translate(-324.44 -363.04)"><rect class="cls-1" x="467.89" y="414.78" width="155.33" height="76.04"/></clipPath></defs><path d="M425.05,512.29l-.89-7.7h-.38a22.7,22.7,0,0,1-18.66,9.08c-12.36,0-18.67-8.7-18.67-17.53,0-14.75,13.12-22.83,36.7-22.7v-1.26c0-5.05-1.38-14.13-13.87-14.13a30.44,30.44,0,0,0-15.89,4.54l-2.52-7.31c5-3.28,12.36-5.43,20.05-5.43,18.67,0,23.21,12.74,23.21,25v22.83a85.64,85.64,0,0,0,1,14.63Zm-1.64-31.16c-12.11-.25-25.86,1.9-25.86,13.75,0,7.19,4.79,10.6,10.47,10.6a15.21,15.21,0,0,0,14.76-10.22,11.89,11.89,0,0,0,.63-3.53Z" transform="translate(-324.44 -363.04)"/><path d="M683.67,512.29l-.88-7.7h-.38a22.72,22.72,0,0,1-18.67,9.08c-12.36,0-18.66-8.7-18.66-17.53,0-14.75,13.11-22.83,36.7-22.7v-1.26c0-5.05-1.39-14.13-13.87-14.13a30.48,30.48,0,0,0-15.9,4.54l-2.52-7.31c5-3.28,12.36-5.43,20-5.43,18.67,0,23.21,12.74,23.21,25v22.83a85.64,85.64,0,0,0,1,14.63ZM682,481.13c-12.11-.25-25.86,1.9-25.86,13.75,0,7.19,4.8,10.6,10.47,10.6a15.2,15.2,0,0,0,14.76-10.22,11.58,11.58,0,0,0,.63-3.53Z" transform="translate(-324.44 -363.04)"/><path class="cls-2" d="M708,435c-82.89-89.32-254-89.32-336.89,0" transform="translate(-324.44 -363.04)"/><g class="cls-3"><path d="M492.86,470.29c0-7.19-.12-13.37-.5-19.05h9.71l.38,12h.5c2.78-8.2,9.46-13.37,16.9-13.37a12.11,12.11,0,0,1,3.16.38V460.7a16.84,16.84,0,0,0-3.79-.38c-7.82,0-13.37,5.93-14.88,14.25a31.61,31.61,0,0,0-.5,5.18v32.54h-11Z" transform="translate(-324.44 -363.04)"/><path d="M589.85,434.09c.13,3.78-2.65,6.81-7.06,6.81a6.61,6.61,0,0,1-6.69-6.81,6.77,6.77,0,0,1,6.94-6.94A6.59,6.59,0,0,1,589.85,434.09Zm-12.36,78.2v-61h11.1v61Z" transform="translate(-324.44 -363.04)"/></g><line class="cls-2" x1="374.22" y1="137.52" x2="389.07" y2="137.52"/><path class="cls-2" d="M364,438.93h-3.75a30.79,30.79,0,0,0,0,61.58h21.88" transform="translate(-324.44 -363.04)"/><line class="cls-2" x1="115.59" y1="137.49" x2="316.29" y2="137.51"/><text x="-324.44" y="-363.04"/><text x="-324.44" y="-363.04"/></svg>