<svg id="Layer_1" enable-background="new 0 0 511.861 511.861" height="512" viewBox="0 0 511.861 511.861" width="512" xmlns="http://www.w3.org/2000/svg"><path d="m501.565 180.338-145.906-145.906c-13.172-13.73-36.878-13.729-50.05 0l-295.312 295.313c-13.73 13.172-13.729 36.878 0 50.05l97.384 97.384c6.706 6.801 15.657 10.546 25.204 10.546l96.685-.003c9.453 0 18.34-3.681 25.025-10.365l246.969-246.97c13.73-13.171 13.729-36.877.001-50.049zm-67.669 89.434-167.671-167.671 21.92-21.92 167.671 167.67zm-140.007 140.007-31.311-31.311 125.865-125.865 31.311 31.311zm-41.806-293.536 31.311 31.311-125.865 125.865-31.311-31.311zm45.453 45.454 76.764 76.764-125.865 125.865-76.764-76.764zm50.205-50.205 28.346-28.346 76.764 76.764-28.346 28.346zm-27.989-62.918c5.728-5.97 16.037-5.97 21.765 0l20.428 20.428-28.346 28.346-31.311-31.311zm-79.299 414.641c-2.907 2.906-6.772 4.507-10.884 4.507l-96.685.003c-4.151 0-8.044-1.629-11.011-4.639l-97.435-97.435c-5.97-5.729-5.97-16.037 0-21.765l87.636-87.636 167.671 167.671zm246.969-246.97-17.464 17.464-31.311-31.311 28.346-28.346 20.429 20.428c5.971 5.729 5.971 16.037 0 21.765z"/></svg>