<svg id="Layer_1" enable-background="new 0 0 512.03 512.03" height="512" viewBox="0 0 512.03 512.03" width="512" xmlns="http://www.w3.org/2000/svg"><path d="m495.946 16.094c-21.445-21.443-56.337-21.443-77.782 0l-74.246 74.246-3.535-3.535c-11.697-11.697-30.729-11.696-42.427 0l-42.426 42.427c-3.905 3.905-3.905 10.237 0 14.142l21.213 21.213-165.274 165.274c-52.127 51.827-58.153 86.172-108.54 136.825-3.905 3.905-3.905 10.237 0 14.142l28.284 28.285c3.724 3.873 10.419 3.873 14.143 0 50.655-50.39 84.997-56.413 136.826-108.542l165.273-165.273 21.213 21.213c1.953 1.953 4.512 2.929 7.071 2.929s5.118-.977 7.071-2.929l42.427-42.426c11.697-11.697 11.697-30.729 0-42.427l-3.535-3.535 74.245-74.246c21.444-21.445 21.444-56.338-.001-77.783zm-162.634 205.062-51.182 51.182h-84.852l93.608-93.608zm-165.274 165.273c-47.981 48.218-81.272 55.844-129.662 101.563l-14.327-14.328c21.546-22.719 34.772-42.488 47.603-61.666 14.593-21.812 28.377-42.413 53.959-67.996l51.666-51.666h84.852zm243.056-186.487-35.355 35.355-14.142-14.142 14.142-14.142c3.905-3.905 3.905-10.237 0-14.142-3.906-3.905-10.236-3.905-14.143 0l-14.142 14.142-14.142-14.142 14.142-14.142c3.905-3.905 3.905-10.237 0-14.143-3.906-3.905-10.236-3.905-14.143 0l-14.142 14.142-14.142-14.142 14.142-14.143c3.905-3.905 3.905-10.237 0-14.142-3.906-3.905-10.238-3.905-14.143 0l-14.142 14.142-14.142-14.142 35.354-35.355c3.683-3.847 10.459-3.848 14.142 0l84.854 84.853c3.85 3.685 3.85 10.46.002 14.143zm70.71-120.207-74.245 74.246-49.498-49.497 74.246-74.246c13.647-13.647 35.852-13.646 49.497-.001 13.646 13.646 13.646 35.851 0 49.498z"/></svg>